<svg xmlns="http://www.w3.org/2000/svg" viewBox="0 0 353.54 101.5"><defs><style>.cls-1{fill:#0552b5;}.cls-2{fill:#da127d;}</style></defs><g id="Layer_2" data-name="Layer 2"><g id="Layer_1-2" data-name="Layer 1"><path class="cls-1" d="M51.78,48.17a18.72,18.72,0,0,1-1.53,7.54A19.7,19.7,0,0,1,39.91,66.05a18.73,18.73,0,0,1-7.54,1.54H0V2.84H32.37a18.73,18.73,0,0,1,7.54,1.54A19.79,19.79,0,0,1,50.25,14.72a18.72,18.72,0,0,1,1.53,7.54,14.6,14.6,0,0,1-.49,3.7,18.28,18.28,0,0,1-1.4,3.66,15.8,15.8,0,0,1-2.17,3.2,12.1,12.1,0,0,1-2.8,2.39,10.29,10.29,0,0,1,2.85,2.33,16.26,16.26,0,0,1,2.16,3.23,16.66,16.66,0,0,1,1.38,3.68A15.29,15.29,0,0,1,51.78,48.17ZM13,28.76H32.37A6.44,6.44,0,0,0,37,26.89a6.3,6.3,0,0,0,1.38-2.08,6.62,6.62,0,0,0,.5-2.55,6.41,6.41,0,0,0-6.46-6.46H13Zm0,25.87H32.37a6.45,6.45,0,0,0,2.53-.5,6.45,6.45,0,0,0,3.43-3.43,6.42,6.42,0,0,0,.5-2.53,6.49,6.49,0,0,0-.5-2.53,6.39,6.39,0,0,0-1.38-2,6.28,6.28,0,0,0-2.05-1.38,6.45,6.45,0,0,0-2.53-.49H13Z"/><path class="cls-1" d="M79.51,55.76a6.69,6.69,0,0,0,1.44.29,13.94,13.94,0,0,0,1.45.07,12.13,12.13,0,0,0,3.47-.5A12.52,12.52,0,0,0,89,54.2,11.86,11.86,0,0,0,93.5,49l9,9.07a23.87,23.87,0,0,1-4,4.38,25.48,25.48,0,0,1-4.83,3.3,25,25,0,0,1-21,.85A24.13,24.13,0,0,1,65,61.31a24.59,24.59,0,0,1-5.31-8.06A26.58,26.58,0,0,1,57.7,43a27.45,27.45,0,0,1,1.94-10.47A23.68,23.68,0,0,1,72.8,19.23a25,25,0,0,1,9.6-1.85,24.4,24.4,0,0,1,5.91.72,25.49,25.49,0,0,1,5.48,2.08,25,25,0,0,1,4.86,3.32,24.74,24.74,0,0,1,4,4.4Zm6.32-25.42a7.25,7.25,0,0,0-1.7-.41,16,16,0,0,0-1.73-.09,12.29,12.29,0,0,0-4.77.93,11.43,11.43,0,0,0-3.88,2.64,12.52,12.52,0,0,0-2.6,4.13A14.82,14.82,0,0,0,70.21,43c0,.45,0,1,.06,1.54s.12,1.15.23,1.73a17,17,0,0,0,.38,1.7,6.28,6.28,0,0,0,.59,1.44Z"/><path class="cls-1" d="M120.45,86V73.59l6.87.09a10.41,10.41,0,0,0,3.47-.59,11.9,11.9,0,0,0,3.1-1.62,12.14,12.14,0,0,0,2.5-2.46,13.49,13.49,0,0,0,1.76-3.09c-1.35.57-2.73,1.14-4.13,1.71a11.13,11.13,0,0,1-4.22.86,22.37,22.37,0,0,1-8.4-1.58,20.4,20.4,0,0,1-11.53-11.58,24.75,24.75,0,0,1-1.7-9.37V19.23h12.28V46a12.28,12.28,0,0,0,.75,4.49,9.44,9.44,0,0,0,2,3.21,8,8,0,0,0,3,1.92,10.3,10.3,0,0,0,3.63.63,7.65,7.65,0,0,0,3.59-.88,10.11,10.11,0,0,0,3-2.33,11.09,11.09,0,0,0,2-3.27,10.23,10.23,0,0,0,.73-3.77V19.23h12.41V61.49a24.21,24.21,0,0,1-2,9.57,24.71,24.71,0,0,1-5.3,7.81,25.34,25.34,0,0,1-7.83,5.29,23.85,23.85,0,0,1-9.58,1.94Z"/><path class="cls-1" d="M207.59,43a26.1,26.1,0,0,1-1.94,10.09,25.37,25.37,0,0,1-5.28,8.08,24.62,24.62,0,0,1-7.84,5.38,24.56,24.56,0,0,1-19.23,0,24.76,24.76,0,0,1-13.16-13.46A25.92,25.92,0,0,1,158.2,43a26.32,26.32,0,0,1,1.94-10.2A24.5,24.5,0,0,1,173.3,19.32a24,24,0,0,1,9.59-1.94,25.29,25.29,0,0,1,9.64,1.83,23.34,23.34,0,0,1,7.84,5.19,24.83,24.83,0,0,1,5.28,8.08A27.46,27.46,0,0,1,207.59,43Zm-12.42,0a14.34,14.34,0,0,0-1-5.4,12.86,12.86,0,0,0-2.64-4.15,11.38,11.38,0,0,0-3.9-2.66,12.67,12.67,0,0,0-9.53,0,11.2,11.2,0,0,0-3.88,2.66,12.77,12.77,0,0,0-2.6,4.15,14.75,14.75,0,0,0-1,5.4,14,14,0,0,0,1,5.19,13,13,0,0,0,2.6,4.16,12.08,12.08,0,0,0,3.88,2.77,11.34,11.34,0,0,0,4.76,1,12.12,12.12,0,0,0,4.77-.95,11.81,11.81,0,0,0,3.9-2.66,12.49,12.49,0,0,0,2.64-4.16A14.3,14.3,0,0,0,195.17,43Z"/><path class="cls-1" d="M226.73,67.59H214.41V19.23h3l4.06,4.7a21.61,21.61,0,0,1,14.63-5.64A20.84,20.84,0,0,1,244.43,20a21.68,21.68,0,0,1,6.86,4.65,21.9,21.9,0,0,1,4.63,6.91A21.11,21.11,0,0,1,257.61,40V67.59H245.29V40a8.9,8.9,0,0,0-.73-3.59,9.26,9.26,0,0,0-4.92-4.95,8.88,8.88,0,0,0-3.56-.72,9.33,9.33,0,0,0-6.64,2.71,9.46,9.46,0,0,0-2,3,9.06,9.06,0,0,0-.72,3.59Z"/><path class="cls-1" d="M313.1,67.59h-3L305.33,61a39.92,39.92,0,0,1-3.72,3,27.87,27.87,0,0,1-4.13,2.39A25.19,25.19,0,0,1,293,67.9a18.54,18.54,0,0,1-4.63.59A24.36,24.36,0,0,1,271,61.24a24.92,24.92,0,0,1-5.3-8.08A26.15,26.15,0,0,1,263.71,43a26.23,26.23,0,0,1,1.94-10.16A25.1,25.1,0,0,1,271,24.7a24.61,24.61,0,0,1,7.86-5.38,24,24,0,0,1,9.59-1.94,21.94,21.94,0,0,1,3.37.27,18.07,18.07,0,0,1,3.38.88,14,14,0,0,1,3.1,1.61,9.36,9.36,0,0,1,2.43,2.43V8.86L313.1,0ZM300.68,43a12.74,12.74,0,0,0-1-4.9,14.23,14.23,0,0,0-2.64-4.2,13.07,13.07,0,0,0-3.9-2.93,10.58,10.58,0,0,0-4.77-1.11,12.45,12.45,0,0,0-4.76.91,11.16,11.16,0,0,0-3.88,2.59,12.17,12.17,0,0,0-2.6,4.13,15.16,15.16,0,0,0-1,5.51,13.76,13.76,0,0,0,3.55,9.26,12.13,12.13,0,0,0,3.88,2.84,11.21,11.21,0,0,0,4.76,1A10.58,10.58,0,0,0,293.17,55a12.91,12.91,0,0,0,3.9-2.93,14.23,14.23,0,0,0,2.64-4.2A12.74,12.74,0,0,0,300.68,43Z"/><path class="cls-2" d="M228.27,101H211.79V93.78h16.48a1.69,1.69,0,0,0,1.27-.53,1.72,1.72,0,0,0,.53-1.26,1,1,0,0,0-.53-1,3.2,3.2,0,0,0-1.27-.23h-7.5a8.61,8.61,0,0,1-3.51-.72,9,9,0,0,1-2.85-1.94,9.22,9.22,0,0,1-1.92-2.86,9.18,9.18,0,0,1,0-7,9,9,0,0,1,4.77-4.77,8.94,8.94,0,0,1,3.51-.7h14.61v7.19H220.77A1.79,1.79,0,0,0,219,81.71,1.81,1.81,0,0,0,219.5,83a1.73,1.73,0,0,0,1.27.54h7.5a9.86,9.86,0,0,1,3.49.62,8.92,8.92,0,0,1,2.85,1.73A8.12,8.12,0,0,1,237.25,92a8.72,8.72,0,0,1-.71,3.5,9.5,9.5,0,0,1-1.93,2.85,8.87,8.87,0,0,1-6.34,2.63Z"/><path class="cls-2" d="M268.42,86.57a15.22,15.22,0,0,1-1.14,5.91,14.5,14.5,0,0,1-7.67,7.87,14.33,14.33,0,0,1-11.25,0,14.51,14.51,0,0,1-7.7-7.87,15.22,15.22,0,0,1-1.14-5.91,15.41,15.41,0,0,1,1.14-6,14.7,14.7,0,0,1,3.1-4.74,14.49,14.49,0,0,1,4.6-3.13A14.09,14.09,0,0,1,254,71.6a14.67,14.67,0,0,1,5.64,1.07,13.57,13.57,0,0,1,4.58,3,14.26,14.26,0,0,1,3.09,4.73A16,16,0,0,1,268.42,86.57Zm-7.26,0a8.34,8.34,0,0,0-.57-3.15A7.39,7.39,0,0,0,259,81a6.62,6.62,0,0,0-2.28-1.56,7.48,7.48,0,0,0-5.58,0A6.58,6.58,0,0,0,248.91,81a7.32,7.32,0,0,0-1.52,2.43,8.54,8.54,0,0,0-.55,3.15,8.17,8.17,0,0,0,.55,3A7.75,7.75,0,0,0,248.91,92a7,7,0,0,0,2.27,1.62,6.63,6.63,0,0,0,2.79.6A7.07,7.07,0,0,0,259,92.15a7.39,7.39,0,0,0,1.55-2.43A8.45,8.45,0,0,0,261.16,86.57Z"/><path class="cls-2" d="M297.13,78.31l-5.29,5.3a7.09,7.09,0,0,0-1.08-2,7.22,7.22,0,0,0-1.54-1.49,7,7,0,0,0-1.87-.93,6.77,6.77,0,0,0-2.06-.31,6.59,6.59,0,0,0-2.78.6,6.91,6.91,0,0,0-2.27,1.71,8.07,8.07,0,0,0-1.52,2.6,9.53,9.53,0,0,0-.56,3.33,7,7,0,0,0,.56,2.77,7.18,7.18,0,0,0,1.52,2.27,7.11,7.11,0,0,0,5.05,2.09,7.24,7.24,0,0,0,2-.29,7.56,7.56,0,0,0,1.83-.83,7,7,0,0,0,1.54-1.32,6.8,6.8,0,0,0,1.09-1.74l5.28,5.31A14.11,14.11,0,0,1,294.76,98a14.49,14.49,0,0,1-6,3.13,14.67,14.67,0,0,1-3.45.41,14.09,14.09,0,0,1-5.61-1.13,14.49,14.49,0,0,1-7.7-7.64,14,14,0,0,1-1.13-5.6A16.31,16.31,0,0,1,272,81.05a15.61,15.61,0,0,1,3.11-4.92,14.67,14.67,0,0,1,4.59-3.32,13.19,13.19,0,0,1,5.61-1.21,13.62,13.62,0,0,1,3.48.45,14.24,14.24,0,0,1,3.25,1.3,14.55,14.55,0,0,1,2.85,2.1A13.26,13.26,0,0,1,297.13,78.31Z"/><rect class="cls-2" x="300.64" y="72.68" width="7.26" height="28.29"/><path class="cls-2" d="M340.79,101H339l-2.8-3.89a20.44,20.44,0,0,1-2.18,1.73,15.27,15.27,0,0,1-2.41,1.4,15,15,0,0,1-2.6.94,10.83,10.83,0,0,1-2.71.35,15.56,15.56,0,0,1-5.61-1,13.23,13.23,0,0,1-4.6-2.92,13.53,13.53,0,0,1-3.1-4.69,16.44,16.44,0,0,1-1.14-6.31A15.72,15.72,0,0,1,313,80.51a14.33,14.33,0,0,1,3.1-4.74,13.93,13.93,0,0,1,4.6-3.08,14.42,14.42,0,0,1,5.61-1.09,11,11,0,0,1,2.72.34,14.3,14.3,0,0,1,2.61,1,16.37,16.37,0,0,1,2.42,1.43,18.39,18.39,0,0,1,2.15,1.77l2.8-3.36h1.75Zm-7.27-14.4a7.45,7.45,0,0,0-.57-2.86,8,8,0,0,0-1.54-2.46,7.79,7.79,0,0,0-2.29-1.72,6.2,6.2,0,0,0-2.78-.64,7.59,7.59,0,0,0-2.79.5,6.29,6.29,0,0,0-2.27,1.48,7,7,0,0,0-1.52,2.41,10.12,10.12,0,0,0,0,6.58,7,7,0,0,0,1.52,2.42,6.42,6.42,0,0,0,2.27,1.48,7.8,7.8,0,0,0,2.79.5,6.21,6.21,0,0,0,2.78-.65,7.46,7.46,0,0,0,2.29-1.72A8.07,8.07,0,0,0,333,89.44,7.5,7.5,0,0,0,333.52,86.57Z"/><path class="cls-2" d="M353.54,101h-7.26V66.86l7.26-5.43Z"/><path class="cls-2" d="M304.22,62.86l3.89,5h-7.89a14.39,14.39,0,0,0,3-2A4.94,4.94,0,0,0,304.22,62.86Z"/></g></g></svg>