<svg xmlns="http://www.w3.org/2000/svg" viewBox="0 0 362.32 101.5"><defs><style>.cls-1{fill:#0552b5;}.cls-2{fill:#da127d;}</style></defs><g id="Layer_2" data-name="Layer 2"><g id="Layer_1-2" data-name="Layer 1"><path class="cls-1" d="M60.57,48.17A18.73,18.73,0,0,1,59,55.71,19.7,19.7,0,0,1,48.69,66.05a18.73,18.73,0,0,1-7.54,1.54H8.78V9.3L0,2.84H41.15a18.73,18.73,0,0,1,7.54,1.54A19.79,19.79,0,0,1,59,14.72a18.73,18.73,0,0,1,1.54,7.54,14.62,14.62,0,0,1-.5,3.7,18.28,18.28,0,0,1-1.4,3.66,15.4,15.4,0,0,1-2.17,3.2,11.9,11.9,0,0,1-2.8,2.39,10.14,10.14,0,0,1,2.85,2.33,16.66,16.66,0,0,1,3.54,6.91A15.32,15.32,0,0,1,60.57,48.17ZM21.74,28.76H41.15a6.42,6.42,0,0,0,2.53-.5,6.57,6.57,0,0,0,2.06-1.37,6.44,6.44,0,0,0,1.37-2.08,6.62,6.62,0,0,0,.5-2.55,6.42,6.42,0,0,0-.5-2.53,6.27,6.27,0,0,0-3.43-3.43,6.42,6.42,0,0,0-2.53-.5H21.74Zm0,25.87H41.15a6.41,6.41,0,0,0,6.46-6.46,6.39,6.39,0,0,0-3.93-6,6.41,6.41,0,0,0-2.53-.49H21.74Z"/><path class="cls-1" d="M88.29,55.76a6.69,6.69,0,0,0,1.44.29,13.94,13.94,0,0,0,1.45.07,12.13,12.13,0,0,0,3.47-.5,12.36,12.36,0,0,0,3.14-1.42A11.86,11.86,0,0,0,102.28,49l9,9.07a23.87,23.87,0,0,1-4,4.38,25.48,25.48,0,0,1-4.83,3.3,25,25,0,0,1-21,.85,24.13,24.13,0,0,1-7.85-5.28,24.75,24.75,0,0,1-5.31-8.06A26.58,26.58,0,0,1,66.48,43a27.45,27.45,0,0,1,1.94-10.47A23.68,23.68,0,0,1,81.58,19.23a25,25,0,0,1,9.6-1.85,24.4,24.4,0,0,1,5.91.72,25.38,25.38,0,0,1,5.49,2.08,25,25,0,0,1,8.82,7.72Zm6.32-25.42a7.13,7.13,0,0,0-1.7-.41,16,16,0,0,0-1.73-.09,12.29,12.29,0,0,0-4.77.93,11.43,11.43,0,0,0-3.88,2.64,12.34,12.34,0,0,0-2.59,4.13A14.61,14.61,0,0,0,79,43c0,.45,0,1,.06,1.54s.12,1.15.23,1.73.23,1.16.38,1.7a6.28,6.28,0,0,0,.59,1.44Z"/><path class="cls-1" d="M129.24,86V73.59l6.86.09a10.41,10.41,0,0,0,3.47-.59,11.88,11.88,0,0,0,5.6-4.08,13.13,13.13,0,0,0,1.76-3.09c-1.35.57-2.73,1.14-4.13,1.71a11.09,11.09,0,0,1-4.22.86,22.37,22.37,0,0,1-8.4-1.58,20.4,20.4,0,0,1-11.53-11.58A24.75,24.75,0,0,1,117,46V19.23h12.28V46a12.28,12.28,0,0,0,.74,4.49,9.44,9.44,0,0,0,2,3.21,8,8,0,0,0,3,1.92,10.34,10.34,0,0,0,3.63.63,7.62,7.62,0,0,0,3.59-.88,10,10,0,0,0,3-2.33,11.09,11.09,0,0,0,2-3.27,10,10,0,0,0,.73-3.77V19.23h12.41V61.49a24.38,24.38,0,0,1-2,9.57A24.9,24.9,0,0,1,153,78.87a25.34,25.34,0,0,1-7.83,5.29,23.83,23.83,0,0,1-9.57,1.94Z"/><path class="cls-1" d="M216.37,43a26.1,26.1,0,0,1-1.94,10.09,25.2,25.2,0,0,1-5.28,8.08,24.62,24.62,0,0,1-7.84,5.38,24.56,24.56,0,0,1-19.23,0,24.84,24.84,0,0,1-13.16-13.46A26.1,26.1,0,0,1,167,43a26.51,26.51,0,0,1,1.94-10.2,24.59,24.59,0,0,1,13.16-13.46,24,24,0,0,1,9.6-1.94,25.24,25.24,0,0,1,9.63,1.83,23.34,23.34,0,0,1,7.84,5.19,24.67,24.67,0,0,1,5.28,8.08A27.46,27.46,0,0,1,216.37,43ZM204,43a14.35,14.35,0,0,0-1-5.4,12.69,12.69,0,0,0-2.64-4.15,11.38,11.38,0,0,0-3.9-2.66,12.67,12.67,0,0,0-9.53,0A11.2,11.2,0,0,0,183,33.43a12.94,12.94,0,0,0-2.6,4.15,14.75,14.75,0,0,0-.94,5.4,14,14,0,0,0,.94,5.19,13.2,13.2,0,0,0,2.6,4.16,12.08,12.08,0,0,0,3.88,2.77,11.35,11.35,0,0,0,4.77,1,12.11,12.11,0,0,0,4.76-.95,11.81,11.81,0,0,0,3.9-2.66A12.33,12.33,0,0,0,203,48.35,14.3,14.3,0,0,0,204,43Z"/><path class="cls-1" d="M235.51,67.59H223.19V19.23h3l4.06,4.7a21.61,21.61,0,0,1,14.63-5.64A20.84,20.84,0,0,1,253.21,20a21.57,21.57,0,0,1,6.86,4.65,21.9,21.9,0,0,1,4.63,6.91A21.11,21.11,0,0,1,266.39,40V67.59H254.07V40a9.06,9.06,0,0,0-.72-3.59,9.35,9.35,0,0,0-4.92-4.95,9,9,0,0,0-3.57-.72,9.37,9.37,0,0,0-3.66.72,9.16,9.16,0,0,0-5,4.95,8.9,8.9,0,0,0-.73,3.59Z"/><path class="cls-1" d="M321.88,67.59h-3L314.12,61a41.42,41.42,0,0,1-3.73,3,27.87,27.87,0,0,1-4.13,2.39,25.19,25.19,0,0,1-4.45,1.6,18.52,18.52,0,0,1-4.62.59,24.31,24.31,0,0,1-17.45-7.25,24.79,24.79,0,0,1-5.31-8.08A26.34,26.34,0,0,1,272.49,43a26.42,26.42,0,0,1,1.94-10.16,25,25,0,0,1,5.31-8.12,24.57,24.57,0,0,1,7.85-5.38,24,24,0,0,1,9.6-1.94,21.91,21.91,0,0,1,3.36.27,17.68,17.68,0,0,1,3.38.88,14,14,0,0,1,3.1,1.61,9.36,9.36,0,0,1,2.43,2.43V8.86L321.88,0ZM309.46,43a12.74,12.74,0,0,0-1-4.9,13.83,13.83,0,0,0-2.64-4.2A13.07,13.07,0,0,0,302,31a10.57,10.57,0,0,0-4.76-1.11,12.46,12.46,0,0,0-4.77.91,11.16,11.16,0,0,0-3.88,2.59,12.32,12.32,0,0,0-2.6,4.13A15.16,15.16,0,0,0,285,43a13.66,13.66,0,0,0,.94,5.06,13.87,13.87,0,0,0,2.6,4.2,12.13,12.13,0,0,0,3.88,2.84,11.22,11.22,0,0,0,4.77,1A10.57,10.57,0,0,0,302,55a12.91,12.91,0,0,0,3.9-2.93,13.83,13.83,0,0,0,2.64-4.2A12.74,12.74,0,0,0,309.46,43Z"/><path class="cls-2" d="M237.05,101H220.57V93.78h16.48a1.69,1.69,0,0,0,1.27-.53,1.72,1.72,0,0,0,.53-1.26,1,1,0,0,0-.53-1,3.2,3.2,0,0,0-1.27-.23h-7.5A8.61,8.61,0,0,1,226,90a9,9,0,0,1-2.85-1.94,9.22,9.22,0,0,1-1.92-2.86,9,9,0,0,1,8.28-12.5h14.61v7.19H229.55a1.81,1.81,0,0,0-1.79,1.79,1.78,1.78,0,0,0,.53,1.31,1.69,1.69,0,0,0,1.26.54h7.5a9.82,9.82,0,0,1,3.49.62,8.92,8.92,0,0,1,2.85,1.73,8.1,8.1,0,0,1,1.93,2.67A8,8,0,0,1,246,92a8.56,8.56,0,0,1-.71,3.5,9.32,9.32,0,0,1-1.93,2.85,8.87,8.87,0,0,1-6.34,2.63Z"/><path class="cls-2" d="M277.2,86.57a15.22,15.22,0,0,1-1.14,5.91,14.5,14.5,0,0,1-7.67,7.87,14.33,14.33,0,0,1-11.25,0,14.51,14.51,0,0,1-7.7-7.87,15.21,15.21,0,0,1-1.13-5.91,15.41,15.41,0,0,1,1.13-6,14.34,14.34,0,0,1,7.7-7.87,14.09,14.09,0,0,1,5.61-1.13,14.67,14.67,0,0,1,5.64,1.07,13.57,13.57,0,0,1,4.58,3,14.26,14.26,0,0,1,3.09,4.73A16,16,0,0,1,277.2,86.57Zm-7.26,0a8.34,8.34,0,0,0-.57-3.15A7.23,7.23,0,0,0,267.82,81a6.62,6.62,0,0,0-2.28-1.56,7.45,7.45,0,0,0-5.57,0A6.53,6.53,0,0,0,257.69,81a7.3,7.3,0,0,0-1.51,2.43,8.54,8.54,0,0,0-.56,3.15,8.18,8.18,0,0,0,.56,3A7.73,7.73,0,0,0,257.69,92,7,7,0,0,0,260,93.66a6.59,6.59,0,0,0,2.78.6,7.07,7.07,0,0,0,5.07-2.11,7.23,7.23,0,0,0,1.55-2.43A8.45,8.45,0,0,0,269.94,86.57Z"/><path class="cls-2" d="M305.91,78.31l-5.28,5.3a7.38,7.38,0,0,0-1.09-2A7,7,0,0,0,298,80.13a6.76,6.76,0,0,0-1.86-.93,6.86,6.86,0,0,0-2.06-.31,6.6,6.6,0,0,0-2.79.6A6.91,6.91,0,0,0,289,81.2a8.25,8.25,0,0,0-1.52,2.6,9.54,9.54,0,0,0-.55,3.33,7,7,0,0,0,.55,2.77A7.36,7.36,0,0,0,289,92.17a7.11,7.11,0,0,0,5.06,2.09,7.22,7.22,0,0,0,2-.29,7.81,7.81,0,0,0,1.84-.83,7.13,7.13,0,0,0,1.53-1.32,6.8,6.8,0,0,0,1.09-1.74l5.29,5.31A14.16,14.16,0,0,1,303.54,98a14.3,14.3,0,0,1-9.46,3.54,14.18,14.18,0,0,1-5.62-1.13,14.42,14.42,0,0,1-7.69-7.64,13.88,13.88,0,0,1-1.14-5.6,16.12,16.12,0,0,1,1.14-6.08,15.58,15.58,0,0,1,3.1-4.92,14.67,14.67,0,0,1,4.59-3.32,13.27,13.27,0,0,1,5.62-1.21,13.54,13.54,0,0,1,3.47.45,14.06,14.06,0,0,1,3.25,1.3,14.55,14.55,0,0,1,2.85,2.1A13.26,13.26,0,0,1,305.91,78.31Z"/><rect class="cls-2" x="309.42" y="72.68" width="7.26" height="28.29"/><path class="cls-2" d="M349.57,101h-1.75L345,97.08a21.37,21.37,0,0,1-2.17,1.73,15.83,15.83,0,0,1-2.42,1.4,14.72,14.72,0,0,1-2.6.94,10.77,10.77,0,0,1-2.71.35,15.56,15.56,0,0,1-5.61-1,13.32,13.32,0,0,1-4.6-2.92,13.67,13.67,0,0,1-3.1-4.69,16.44,16.44,0,0,1-1.14-6.31,15.72,15.72,0,0,1,1.14-6.06,14.49,14.49,0,0,1,3.1-4.74,14,14,0,0,1,4.6-3.08,14.42,14.42,0,0,1,5.61-1.09,10.9,10.9,0,0,1,2.72.34,14.67,14.67,0,0,1,2.62,1,16.27,16.27,0,0,1,2.41,1.43A18.39,18.39,0,0,1,345,76.09l2.8-3.36h1.75Zm-7.27-14.4a7.63,7.63,0,0,0-.56-2.86,8.22,8.22,0,0,0-1.55-2.46,7.88,7.88,0,0,0-2.28-1.72,6.21,6.21,0,0,0-2.79-.64,7.63,7.63,0,0,0-2.79.5,6.38,6.38,0,0,0-2.27,1.48,7,7,0,0,0-1.52,2.41,10.12,10.12,0,0,0,0,6.58,7,7,0,0,0,1.52,2.42,6.52,6.52,0,0,0,2.27,1.48,7.84,7.84,0,0,0,2.79.5,6.22,6.22,0,0,0,2.79-.65,7.54,7.54,0,0,0,2.28-1.72,8.29,8.29,0,0,0,1.55-2.45A7.68,7.68,0,0,0,342.3,86.57Z"/><path class="cls-2" d="M362.32,101h-7.26V66.86l7.26-5.43Z"/><path class="cls-2" d="M313,62.86l3.89,5H309a14.39,14.39,0,0,0,3-2A4.94,4.94,0,0,0,313,62.86Z"/></g></g></svg>