<svg xmlns="http://www.w3.org/2000/svg" xmlns:xlink="http://www.w3.org/1999/xlink" viewBox="0 0 291.21 311.29"><defs><style>.cls-1{fill:url(#linear-gradient);}</style><linearGradient id="linear-gradient" y1="155.64" x2="291.21" y2="155.64" gradientUnits="userSpaceOnUse"><stop offset="0" stop-color="#ef65e2"/><stop offset="0.14" stop-color="#ef60d9"/><stop offset="0.37" stop-color="#ef52bf"/><stop offset="0.67" stop-color="#ef3d96"/><stop offset="0.99" stop-color="#ef2060"/></linearGradient></defs><g id="Layer_2" data-name="Layer 2"><g id="Layer_1-2" data-name="Layer 1"><path class="cls-1" d="M291.21,218a89.73,89.73,0,0,1-7.38,36.25,94.86,94.86,0,0,1-49.71,49.71,89.73,89.73,0,0,1-36.25,7.38H42.22V31.06L0,0H197.87a89.9,89.9,0,0,1,36.25,7.38,94.86,94.86,0,0,1,49.71,49.71,89.78,89.78,0,0,1,7.38,36.26,70.26,70.26,0,0,1-2.39,17.8,86,86,0,0,1-6.73,17.58,75.84,75.84,0,0,1-10.42,15.41,58.88,58.88,0,0,1-13.45,11.5,48.94,48.94,0,0,1,13.67,11.18,79.12,79.12,0,0,1,10.42,15.53A81.62,81.62,0,0,1,288.93,200,74.54,74.54,0,0,1,291.21,218ZM104.53,124.6h93.34a30.78,30.78,0,0,0,22-9,30.43,30.43,0,0,0,6.62-10,31.67,31.67,0,0,0,2.39-12.26,30.79,30.79,0,0,0-31-31H104.53Zm0,124.39h93.34a31,31,0,1,0,0-62.08H104.53Z"/></g></g></svg>